<svg xmlns="http://www.w3.org/2000/svg" data-name="Layer 14" viewBox="0 0 32 32" id="Binocular"><defs><linearGradient id="a" x1="4.573" x2="27.427" y1="5.905" y2="28.758" gradientUnits="userSpaceOnUse"><stop offset="0" stop-color="#5f30fd" class="stopColorfdc830 svgShape"></stop><stop offset="1" stop-color="#7c55ff" class="stopColorf37335 svgShape"></stop></linearGradient></defs><path fill="url(#a)" d="M27.54,9.96a4.7683,4.7683,0,0,0-1.7-2.88L25.33,4.57A3.196,3.196,0,0,0,19,5.2V7.91A4.71,4.71,0,0,0,18.08,10H13.92A4.71,4.71,0,0,0,13,7.91V5.2a3.196,3.196,0,0,0-6.33-.63L6.16,7.08a4.7683,4.7683,0,0,0-1.7,2.88S2,21.98,2,23.5a6.5,6.5,0,0,0,13,0c0-1.46-.41-5.5-0.41-5.5h2.82S17,22.04,17,23.5a6.5,6.5,0,0,0,13,0C30,21.98,27.54,9.96,27.54,9.96Zm-18.91-5A1.1968,1.1968,0,0,1,11,5.2V6.36A4.7515,4.7515,0,0,0,9.19,6a5.0217,5.0217,0,0,0-.78.07Zm-2.2,5.36a2.8069,2.8069,0,0,1,5.57.57l0.63,7.59A6.5125,6.5125,0,0,0,8.5,17a6.4121,6.4121,0,0,0-3.54,1.06ZM8.5,28A4.5068,4.5068,0,0,1,4,23.5,4.3717,4.3717,0,0,1,8.5,19,4.5,4.5,0,0,1,8.5,28Zm9.07-12H14.43L14.1,12h3.8ZM21,5.2a1.1968,1.1968,0,0,1,2.37-.24l0.22,1.11A5.0217,5.0217,0,0,0,22.81,6,4.7515,4.7515,0,0,0,21,6.36V5.2Zm-1,5.69a2.8069,2.8069,0,0,1,5.57-.57l1.47,7.74A6.4121,6.4121,0,0,0,23.5,17a6.5125,6.5125,0,0,0-4.13,1.48ZM23.5,28a4.5,4.5,0,0,1,0-9A4.3717,4.3717,0,0,1,28,23.5,4.5068,4.5068,0,0,1,23.5,28Z"></path></svg>