<svg width="24" height="24" viewBox="0 0 24 24" fill="none" xmlns="http://www.w3.org/2000/svg">
<g id="icons8_user_location 1">
<path id="Vector" d="M12 1C7.59066 1 4 4.59066 4 9C4 10.9075 5.1785 13.18 6.54199 15.4219C7.90532 17.6635 9.50132 19.8052 10.4873 21.0762C11.2422 22.0495 12.7569 22.0495 13.5117 21.0762C14.498 19.8052 16.0946 17.6635 17.458 15.4219C18.8216 13.18 20 10.9075 20 9C20 4.59066 16.4093 1 12 1ZM12 2.5C15.5987 2.5 18.5 5.40134 18.5 9C18.5 10.2039 17.4895 12.4827 16.1758 14.6426C14.8621 16.8025 13.2929 18.9127 12.3271 20.1572C12.149 20.3869 11.851 20.3869 11.6729 20.1572C10.7073 18.9126 9.13785 16.8025 7.82422 14.6426C6.51058 12.4827 5.5 10.2039 5.5 9C5.5 5.40134 8.40134 2.5 12 2.5ZM12 5.5C11.4696 5.5 10.9609 5.71071 10.5858 6.08579C10.2107 6.46086 10 6.96957 10 7.5C10 8.03043 10.2107 8.53914 10.5858 8.91421C10.9609 9.28929 11.4696 9.5 12 9.5C12.5304 9.5 13.0391 9.28929 13.4142 8.91421C13.7893 8.53914 14 8.03043 14 7.5C14 6.96957 13.7893 6.46086 13.4142 6.08579C13.0391 5.71071 12.5304 5.5 12 5.5ZM9.22363 10.5C8.82363 10.5 8.5 10.8236 8.5 11.2236V11.876C8.5 12.9875 9.9185 14 12 14C14.0815 14 15.5 12.9875 15.5 11.876V11.2236C15.5 10.8236 15.1764 10.5 14.7764 10.5H9.22363Z" fill="#101828"/>
</g>
</svg>
