<svg width="176" height="176" viewBox="0 0 176 176" fill="none" xmlns="http://www.w3.org/2000/svg">
<g id="Group 86">
<rect id="Rectangle 12" width="176" height="176" rx="21" fill="#EFEDF5"/>
<g id="Group 85">
<path id="Vector" d="M104.859 68.3673C105.186 66.5036 105.491 64.6399 105.848 62.7822C105.97 62.1447 105.631 61.8031 105.237 61.4218C102.209 58.4813 99.1918 55.5256 96.1628 52.5759C95.5162 51.9476 94.9092 51.3131 95.1898 50.3096C95.4948 49.2511 96.3489 49.0101 97.2975 48.8729C101.547 48.2628 105.79 47.6161 110.042 47.0427C110.319 47.0235 110.585 46.9251 110.808 46.7591C111.03 46.593 111.201 46.3664 111.298 46.1062C113.129 42.3147 115.023 38.5446 116.871 34.7561C117.292 33.8898 117.786 33.1364 118.863 33.1364C119.94 33.1364 120.437 33.8807 120.858 34.75C122.688 38.5415 124.582 42.3147 126.425 46.1062C126.522 46.3664 126.691 46.5931 126.914 46.7592C127.136 46.9253 127.402 47.0237 127.679 47.0427C131.745 47.5917 135.801 48.2049 139.858 48.7997C140.273 48.8607 140.688 48.9156 141.094 49.0101C142.555 49.3487 143.092 50.8586 142.106 51.9994C141.438 52.7742 140.654 53.4483 139.919 54.1651C137.479 56.5566 135.039 58.9694 132.559 61.3272C132.286 61.5519 132.084 61.8501 131.976 62.1864C131.868 62.5228 131.858 62.8831 131.949 63.2245C132.708 67.3699 133.41 71.5274 134.121 75.6819C134.27 76.5696 134.304 77.445 133.422 78.0368C132.608 78.5828 131.848 78.3418 131.067 77.9178C127.407 75.9778 123.725 74.0866 120.086 72.0978C119.171 71.5945 118.47 71.6311 117.585 72.1375C115.642 73.2447 113.635 74.2452 111.64 75.2946C111.759 75.7673 112.137 75.9778 112.418 76.2554C121.394 85.2456 130.375 94.2308 139.361 103.211C143.693 107.545 143.714 112.874 139.401 117.193C131.987 124.624 124.564 132.046 117.134 139.461C112.924 143.667 107.519 143.667 103.31 139.461C96.6641 132.821 90.0256 126.172 83.3943 119.515C82.7202 118.834 82.3755 118.856 81.7166 119.515C79.252 121.992 79.252 121.955 79.8864 125.585C80.7375 130.407 81.5306 135.242 82.3846 140.065C82.5402 140.937 82.4334 141.654 81.7227 142.2C80.9418 142.81 80.1762 142.572 79.3862 142.154C74.3166 139.473 69.2287 136.825 64.1683 134.126C63.8748 133.934 63.5326 133.831 63.1822 133.828C62.8318 133.826 62.488 133.923 62.1917 134.11C57.1312 136.813 52.0433 139.461 46.9707 142.136C46.2325 142.523 45.4974 142.816 44.7226 142.291C43.9478 141.767 43.7526 141.111 43.9082 140.214C44.9056 134.492 45.8543 128.757 46.87 123.038C46.9584 122.697 46.948 122.338 46.84 122.002C46.732 121.667 46.5308 121.369 46.2599 121.144C42.1542 117.178 38.0852 113.182 33.9917 109.208C33.3328 108.564 32.7898 107.899 33.1193 106.914C33.4487 105.929 34.257 105.712 35.1813 105.581C40.9768 104.763 46.7724 103.909 52.5497 103.089C52.7552 103.071 52.952 102.997 53.1182 102.875C53.2845 102.753 53.4139 102.587 53.4922 102.396C54.7916 99.7366 56.088 97.0706 57.4362 94.4352C57.7413 93.8739 57.4789 93.6177 57.1312 93.2852C55.5664 91.7296 54.023 90.1525 52.4429 88.6152C52.1516 88.3414 51.92 88.0105 51.7625 87.6431C51.6051 87.2757 51.5252 86.8797 51.5278 86.48C51.3051 79.8303 51.0398 73.1807 50.8446 66.528C50.8201 65.7166 50.4206 65.4451 49.8197 65.1157C42.2793 60.9642 36.743 55.0497 33.8666 46.8139C33.0918 44.5994 32.7532 42.3147 33.1986 39.9721C33.9947 35.7596 37.1121 33.1181 41.413 33.0052C45.9488 32.8893 49.8624 34.7195 53.538 37.0896C58.4957 40.2688 62.52 44.7078 65.1993 49.9527C65.3124 50.2258 65.509 50.4562 65.7611 50.6107C66.0132 50.7652 66.3076 50.836 66.6024 50.8129C73.252 51.0264 79.9017 51.2826 86.5544 51.5022C86.9703 51.519 87.3784 51.6199 87.7543 51.7986C88.1302 51.9774 88.466 52.2304 88.7415 52.5424C93.7317 57.5571 98.7292 62.5646 103.734 67.5651C103.999 67.8907 104.229 68.2434 104.42 68.6174L104.859 68.3673ZM103.334 54.2627L103.227 54.1682L103.322 54.278C105.183 56.1692 107.031 58.0787 108.919 59.9424C109.234 60.2178 109.471 60.5718 109.604 60.9684C109.737 61.3649 109.763 61.7898 109.679 62.1996C109.439 63.1899 109.25 64.1917 109.111 65.2011C109.047 65.9057 108.66 66.6073 108.928 67.6017C111.204 64.0939 113.348 60.7965 115.486 57.4991C115.792 57.008 115.56 56.8585 115.078 56.7548C113.046 56.3186 111.024 55.8397 108.977 55.4036C107.123 55.0101 105.292 54.339 103.349 54.2627H103.334ZM134.337 54.2383C130.479 54.8484 126.712 55.9069 122.899 56.6786C121.886 56.8768 121.984 57.2093 122.459 57.92C124.183 60.5128 125.845 63.1452 127.557 65.7441C127.935 66.3175 128.203 66.9916 128.963 67.5346C128.658 65.7044 128.481 64.0481 128.109 62.4314C127.852 61.3211 128.151 60.5494 128.929 59.7899C130.778 57.9872 132.59 56.1295 134.392 54.2993L134.49 54.159L134.337 54.2383ZM77.0863 131.655L77.1808 131.96C77.2083 131.936 77.2601 131.899 77.2571 131.893C77.2113 131.804 77.1564 131.722 77.1046 131.637C76.827 128.464 76.1498 125.356 75.5794 122.226C75.3964 121.189 75.5794 120.396 76.3664 119.664C78.4375 117.706 80.4629 115.699 82.5127 113.725C83.4278 112.841 84.3429 111.959 85.4044 110.946C85.2038 110.904 84.9993 110.884 84.7944 110.885C78.9164 112.194 73.0446 113.518 67.1667 114.817C66.3248 115.003 66.2516 115.281 66.7244 116.01C69.549 120.28 72.3126 124.603 75.1219 128.888C75.7502 129.834 76.2383 130.874 77.0863 131.655ZM51.5339 135.529C51.8204 135.444 52.1015 135.342 52.3758 135.224C55.5725 133.552 58.7814 131.896 61.9476 130.182C62.3183 129.953 62.7437 129.829 63.1791 129.822C63.6144 129.815 64.0436 129.926 64.4214 130.142C66.1967 131.084 67.9537 132.064 69.7381 132.994C71.4158 133.866 73.1178 134.696 74.8107 135.544C74.8201 135.572 74.8346 135.598 74.8535 135.62C74.8535 135.62 74.8931 135.62 74.9144 135.62L74.8169 135.526C74.7929 135.183 74.6592 134.857 74.4356 134.595C70.9064 129.154 67.3619 123.724 63.8602 118.267C63.3142 117.416 63.0396 117.41 62.4875 118.267C59.0315 123.623 55.5329 128.943 52.0616 134.29C51.8206 134.662 51.5339 135.044 51.5278 135.529C51.4995 135.535 51.4726 135.546 51.4485 135.562C51.4333 135.562 51.4485 135.602 51.4302 135.623L51.5339 135.529ZM61.3681 54.3207C59.3274 54.2322 57.2837 54.1834 55.2431 54.0401C54.328 53.973 53.9803 54.1895 54.0443 55.187C54.1938 57.493 54.2304 59.8021 54.3097 62.1112C54.3463 63.2367 54.7123 63.5936 55.905 63.6363C56.9482 63.679 56.3747 62.8219 56.5852 62.4162C56.6409 62.2756 56.6808 62.1293 56.7042 61.98C57.4515 59.1585 59.3915 57.5174 62.0422 56.584C62.4204 56.5596 62.7987 56.5352 63.1769 56.5047C66.7732 56.2241 69.9882 58.4539 70.8301 61.9434C71.6415 65.2987 70.3848 67.9433 67.7005 69.987C67.426 70.109 67.1453 70.228 66.8708 70.3561C64.0828 71.6586 60.5903 71.1675 58.6106 68.831C57.6345 67.6841 56.4998 67.5254 55.2553 67.2723C54.7032 67.1625 54.4805 67.3638 54.5232 67.925C54.5934 68.9103 54.6574 69.8955 54.691 70.8808C54.8638 75.7429 55.0316 80.6041 55.1943 85.4642C55.1943 85.7693 55.1455 86.0743 55.3895 86.3275C56.7194 87.6452 58.0555 88.9599 59.4433 90.3325C60.0534 89.1124 60.5872 88.0417 61.121 86.9497C61.548 86.0743 61.9903 85.2538 63.1647 85.2507C64.3391 85.2477 64.7905 86.0529 65.2237 86.9314C67.7229 92.0153 70.2241 97.092 72.7274 102.162C72.9684 102.65 73.1788 103.034 73.8408 103.125C79.7034 103.937 85.5569 104.797 91.4135 105.639C92.2706 105.761 92.9387 106.136 93.2223 106.987C93.506 107.838 93.1308 108.454 92.5391 109.025C90.352 111.136 88.1955 113.28 85.9809 115.363C85.3404 115.973 85.3068 116.306 85.9596 116.956C92.7068 123.65 99.4338 130.361 106.14 137.087C108.581 139.528 111.802 139.619 114.245 137.194C121.938 129.56 129.601 121.898 137.235 114.207C138.727 112.706 139.303 110.885 138.736 108.775C138.187 106.725 136.506 105.578 135.115 104.199C134.81 103.864 134.505 103.519 134.2 103.199C126.135 95.1306 118.033 87.087 110.026 78.9732C108.806 77.7531 107.891 76.8746 106.104 78.1222C104.884 78.958 103.474 77.8537 103.56 76.3408C103.601 75.5817 103.717 74.8286 103.908 74.0927C104.01 73.7925 104.019 73.4681 103.932 73.1628C103.845 72.8576 103.668 72.5861 103.423 72.3846C97.8893 66.894 92.3764 61.3821 86.8838 55.8489C86.6652 55.6204 86.4009 55.4404 86.1082 55.3206C85.8155 55.2008 85.5009 55.1439 85.1848 55.1534C82.0674 55.068 78.9561 54.9247 75.8387 54.8148C71.0131 54.6522 66.1896 54.4874 61.3681 54.3207ZM61.2644 50.3553C61.2284 50.2716 61.1856 50.191 61.1363 50.1143C58.0127 45.1515 54.0077 41.1465 48.691 38.5629C46.4613 37.48 44.1552 36.6137 41.6082 36.7144C38.5854 36.8333 36.8498 38.569 36.7095 41.5949C36.6608 42.659 36.7845 43.7241 37.0755 44.7489C38.8111 50.8861 42.5843 55.5713 47.5594 59.3903C48.4958 60.1071 49.4201 60.8666 50.3565 61.2205C50.3565 58.4752 50.3779 55.7299 50.3565 53.0091C50.3321 50.7976 50.7896 50.3401 52.992 50.3645C55.7372 50.3736 58.4917 50.3523 61.2583 50.3523L61.2644 50.3553ZM49.2462 131.466C49.658 131.481 49.6915 131.197 49.8044 131.023C53.0215 126.1 56.2375 121.174 59.4525 116.245C60.1937 115.107 60.1846 115.061 58.8424 114.756C54.1938 113.698 49.5482 112.621 44.8873 111.621C43.6672 111.361 42.4837 110.922 41.0317 110.931C41.4283 111.349 41.6784 111.63 41.9468 111.889C44.6128 114.488 47.2757 117.093 49.963 119.67C50.6158 120.299 50.9818 120.991 50.8201 121.9C50.4846 123.797 50.0942 125.689 49.8105 127.595C49.6214 128.888 49.2309 130.142 49.2462 131.466ZM80.646 108.058V107.777C77.9007 107.368 75.1371 106.92 72.3705 106.557C71.2358 106.414 70.5037 105.947 70.0065 104.904C68.6064 101.951 67.1392 99.035 65.6965 96.1037C65.5287 95.7621 65.3518 95.4296 65.181 95.091C65.0101 99.8922 65.0101 104.605 65.0101 109.321C65.0101 111.505 65.0101 111.541 67.127 111.078C71.6293 110.101 76.1346 109.061 80.646 108.058ZM61.3467 95.1642H61.1759C59.5491 98.4626 57.9162 101.761 56.2771 105.059C55.9019 105.822 55.3956 106.389 54.5171 106.517C53.3549 106.685 52.1897 106.822 51.0306 106.999C49.2553 107.259 47.4831 107.53 45.656 107.802C45.7597 107.966 45.7872 108.064 45.836 108.076C50.7866 109.186 55.7464 110.275 60.6909 111.41C61.4077 111.575 61.3467 111.209 61.3467 110.77V95.1642ZM126.455 71.3292L126.648 71.079C124.262 67.3912 121.855 63.7156 119.504 60.0095C118.961 59.1493 118.689 59.2805 118.204 60.04C116.203 63.1696 114.154 66.2687 112.134 69.3861C111.738 69.9962 111.387 70.6367 110.838 71.5579C113.153 70.3378 115.188 69.3404 117.158 68.224C117.664 67.8963 118.254 67.722 118.857 67.722C119.46 67.722 120.05 67.8963 120.556 68.224C122.487 69.316 124.485 70.2982 126.455 71.3292ZM120.895 43.0773L120.687 43.1414V50.9898C120.687 53.3934 120.687 53.3934 122.978 52.9145C123.015 52.9145 123.054 52.9145 123.091 52.8962L130.262 51.2612C128.862 50.8862 127.434 50.624 125.992 50.4773C124.772 50.3706 124.11 49.7178 123.625 48.6654C122.746 46.7834 121.804 44.938 120.895 43.0773ZM117.036 43.117L116.816 43.0895C115.856 45.063 114.889 47.0366 113.937 49.0162C113.779 49.4026 113.518 49.7383 113.182 49.9867C112.847 50.2352 112.449 50.3869 112.034 50.4255C110.508 50.6146 109.002 50.8891 107.489 51.127C110.408 51.9354 113.318 52.5881 116.222 53.2622C116.832 53.4026 117.048 53.2622 117.045 52.6247C117.027 49.4616 117.036 46.2893 117.036 43.117ZM60.1663 63.2703C60.0748 63.7461 60.2547 63.9352 60.7763 63.8407C62.0178 63.6241 63.6009 62.0441 63.8266 60.7721C63.912 60.3115 63.8571 60.0797 63.2715 60.1285C61.7646 60.2566 60.2181 61.7604 60.1663 63.2703ZM62.4143 67.1442C64.1377 67.6231 65.4097 67.2967 66.456 66.1803C67.3711 65.2072 67.5754 63.9932 67.066 62.5809C66.6431 63.6187 66.0122 64.5589 65.2122 65.3437C64.4122 66.1285 63.46 66.7412 62.4143 67.1442Z" fill="#040303"/>
<path id="Vector_2" d="M135.115 104.214C136.506 105.593 138.187 106.74 138.736 108.789C139.303 110.9 138.736 112.721 137.235 114.222C129.589 121.903 121.926 129.565 114.245 137.209C111.805 139.649 108.587 139.543 106.14 137.102C99.4154 130.392 92.6885 123.681 85.9596 116.97C85.3068 116.321 85.3495 115.979 85.9809 115.378C88.1954 113.295 90.352 111.15 92.5391 109.04C93.1308 108.469 93.4846 107.819 93.2223 107.002C92.96 106.184 92.2706 105.782 91.4135 105.654C85.5569 104.812 79.7034 103.952 73.8407 103.14C73.1788 103.049 72.9683 102.664 72.7274 102.176C70.2282 97.0926 67.7269 92.0159 65.2236 86.9463C64.7905 86.0678 64.3391 85.2625 63.1647 85.2656C61.9903 85.2686 61.548 86.0891 61.121 86.9646C60.5872 88.0566 60.0442 89.1394 59.4433 90.3474C58.0554 88.9747 56.7194 87.66 55.3895 86.3423C55.1455 86.1013 55.2034 85.778 55.1943 85.4791C55.0275 80.6169 54.8597 75.7557 54.6909 70.8956C54.6574 69.9104 54.5933 68.9251 54.5232 67.9399C54.4805 67.3786 54.7032 67.1773 55.2553 67.2871C56.4937 67.5403 57.6284 67.6989 58.6106 68.8458C60.5902 71.1732 64.0828 71.6643 66.8708 70.371C67.1453 70.2428 67.426 70.1239 67.7005 70.0019L70.4945 75.0135C69.5795 75.9683 68.6644 76.9138 67.7493 77.8777C66.8342 78.8416 66.8494 79.7079 67.7493 80.6688C68.2404 81.1934 68.8047 81.6571 69.2744 82.1939C71.3303 84.6341 73.8133 85.3266 76.7934 84.1247C77.6758 84.9926 78.4772 85.9391 79.1879 86.9524C78.7547 87.4252 78.2972 87.8675 77.8946 88.3769C77.196 89.2462 77.2479 90.207 77.9861 90.9208C78.7242 91.6346 79.6759 91.6376 80.5331 90.8873C80.9876 90.4907 81.4116 90.0576 81.8508 89.6427C82.4121 90.7286 83.4065 91.4211 84.2483 92.2507C83.8183 92.7266 83.3332 93.1658 82.9642 93.6813C82.8166 93.8561 82.7057 94.0587 82.638 94.2772C82.5702 94.4957 82.547 94.7255 82.5698 94.9531C82.5926 95.1807 82.6608 95.4014 82.7705 95.6021C82.8801 95.8028 83.029 95.9795 83.2082 96.1216C83.9769 96.7591 84.8065 96.7316 85.5844 96.1216C86.0572 95.7525 86.4781 95.3163 86.9204 94.9014C87.6098 95.844 88.6438 96.4754 89.2691 97.4789C89.1136 97.9334 88.7048 98.1714 88.409 98.5038C87.6586 99.3396 87.6067 100.407 88.293 101.133C89.0404 101.923 90.0622 101.89 90.9895 101.048C91.3464 100.721 91.7124 100.398 92.0754 100.075L94.479 102.634C94.1313 103.021 93.7744 103.406 93.4328 103.802C92.7038 104.653 92.7007 105.577 93.4175 106.331C94.1344 107.084 95.0708 107.127 95.9432 106.435C96.4404 106.041 96.8888 105.581 97.3555 105.15L100.186 107.249L98.7952 108.756C97.9411 109.671 97.8801 110.708 98.6061 111.477C99.3321 112.245 100.47 112.215 101.412 111.324C102.205 110.574 102.989 109.799 103.776 109.052L105.015 109.586C104.515 111.172 104.026 112.761 103.508 114.338C103.178 115.348 103.087 116.305 104.118 116.955C105.149 117.605 105.948 117.102 106.717 116.345C108.401 114.661 110.115 113.008 111.817 111.34C113.385 111.675 114.98 111.559 116.566 111.599C114.108 114.078 111.651 116.561 109.197 119.048C108.108 120.152 108.102 120.994 109.163 122.098C109.932 122.888 110.707 123.669 111.503 124.431C113.723 126.567 116.96 126.628 119.211 124.514C121.006 122.824 122.753 121.078 124.451 119.276C126.62 116.973 126.544 113.749 124.357 111.483C124.052 111.156 123.747 110.821 123.442 110.492C123.847 110.403 124.262 110.348 124.662 110.223C128.535 108.989 132.1 106.94 135.115 104.214Z" fill="#D3C6FF"/>
<path id="Vector_3" d="M116.577 111.58C114.991 111.541 113.395 111.657 111.827 111.324C112.075 111.041 112.309 110.745 112.575 110.479C113.941 109.104 115.338 107.755 116.674 106.352C117.452 105.538 117.416 104.522 116.696 103.796C116.353 103.459 115.892 103.27 115.412 103.27C114.931 103.27 114.47 103.459 114.127 103.796C113.786 104.101 113.472 104.431 113.151 104.754L109.662 108.277C109.424 107.639 109.717 107.28 109.836 106.904C110.513 104.812 111.233 102.728 111.916 100.639C112.221 99.7056 112.035 98.8851 111.159 98.3574C110.333 97.8602 109.552 98.0523 108.869 98.6929C108.591 98.9522 108.332 99.2298 108.06 99.4982L100.184 107.255L97.3599 105.15C97.6374 104.845 97.9028 104.519 98.1956 104.235C100.044 102.375 101.932 100.547 103.75 98.6563C106.37 95.9263 105.785 91.7565 102.579 90.0026C101.517 89.4294 100.299 89.2145 99.1049 89.3899C97.9111 89.5652 96.8058 90.1214 95.9537 90.9757C93.7056 93.1109 91.6436 95.4657 89.2735 97.4911C88.6482 96.4875 87.6142 95.8561 86.9248 94.9136C87.9771 93.6508 89.4474 92.6503 89.6975 90.8628C89.8043 90.0911 90.1856 89.8531 90.8963 89.6732C91.815 89.4581 92.6614 89.006 93.3512 88.3621C94.0409 87.7182 94.55 86.9048 94.8277 86.003C95.1053 85.1012 95.142 84.1423 94.9339 83.222C94.7258 82.3016 94.2802 81.4518 93.6416 80.7572C93.0132 80.0495 92.3177 79.4028 91.6467 78.7318C89.9019 76.9839 89.2888 76.9931 87.5348 78.7318C84.7652 81.4791 81.9884 84.2243 79.2045 86.9676C78.4938 85.9543 77.6924 85.0078 76.81 84.1399C78.1613 83.0906 79.2746 81.8827 79.4729 80.0769C79.5339 79.5157 79.9732 79.5096 80.388 79.4181C81.3329 79.2263 82.2097 78.7864 82.9283 78.1436C83.6469 77.5007 84.1814 76.6781 84.4767 75.7603C84.7721 74.8425 84.8178 73.8626 84.609 72.9213C84.4002 71.98 83.9446 71.1113 83.2888 70.4044C82.5781 69.6114 81.7972 68.8793 81.0438 68.135C79.6834 66.7807 78.8629 66.7898 77.4902 68.135C75.1659 70.4288 72.8405 72.7196 70.5142 75.0073L67.7201 69.9957C70.4044 67.952 71.6611 65.3165 70.8497 61.952C70.0078 58.4625 66.7928 56.2327 63.1965 56.5134C62.8183 56.5439 62.4401 56.5683 62.0618 56.5927C61.8391 55.8392 61.6134 55.0889 61.3877 54.3354C66.2133 54.5042 71.0368 54.674 75.8583 54.8449C78.9757 54.9547 82.087 55.098 85.2044 55.1834C85.5206 55.1739 85.8351 55.2308 86.1278 55.3506C86.4205 55.4704 86.6848 55.6504 86.9034 55.8789C92.394 61.4101 97.9069 66.922 103.442 72.4146C103.687 72.6161 103.865 72.8876 103.952 73.1928C104.038 73.4981 104.03 73.8225 103.927 74.1227C103.737 74.8587 103.62 75.6118 103.579 76.3708C103.494 77.896 104.915 78.988 106.123 78.1522C107.92 76.9046 108.829 77.7709 110.046 79.0032C118.065 87.117 126.155 95.1698 134.22 103.229C134.525 103.534 134.83 103.894 135.135 104.229C132.112 106.948 128.543 108.987 124.666 110.211C124.273 110.336 123.858 110.391 123.446 110.479C122.982 110.034 122.531 109.589 122.058 109.149C121.012 108.164 120.133 108.161 119.099 109.149C118.239 109.945 117.403 110.763 116.577 111.58Z" fill="#FDFDFD"/>
<path id="Vector_4" d="M74.8086 135.529C73.1157 134.681 71.4136 133.851 69.7359 132.979C67.9515 132.049 66.1945 131.069 64.4193 130.127C64.0414 129.91 63.6122 129.8 63.1769 129.807C62.7416 129.814 62.3162 129.938 61.9455 130.167C58.7732 131.881 55.5703 133.537 52.3736 135.209C52.0993 135.327 51.8182 135.429 51.5317 135.514C51.5317 135.029 51.8368 134.647 52.0655 134.275C55.5368 128.931 59.0355 123.599 62.4915 118.252C63.0436 117.398 63.3181 117.404 63.8641 118.252C67.3658 123.709 70.9103 129.139 74.4395 134.58C74.6632 134.841 74.7968 135.168 74.8208 135.511L74.8086 135.529Z" fill="#6AEDE3"/>
<path id="Vector_5" d="M77.087 131.655C76.239 130.874 75.751 129.825 75.1348 128.888C72.3255 124.603 69.5619 120.287 66.7374 116.01C66.2554 115.281 66.3378 115.003 67.1797 114.817C73.0576 113.518 78.9294 112.194 84.8073 110.886C85.0123 110.884 85.2168 110.904 85.4174 110.947C84.365 111.959 83.4408 112.841 82.5257 113.725C80.4759 115.708 78.4505 117.691 76.3794 119.664C75.6076 120.396 75.4094 121.189 75.5924 122.227C76.1506 125.356 76.8125 128.464 77.1175 131.637L77.087 131.655Z" fill="#7C55FF"/>
<path id="Vector_6" d="M49.2466 131.465C49.2466 130.141 49.6217 128.875 49.8139 127.594C50.0976 125.688 50.488 123.797 50.8236 121.899C50.9852 120.984 50.6192 120.298 49.9664 119.67C47.2791 117.092 44.6162 114.484 41.9502 111.888C41.6818 111.629 41.4317 111.348 41.0352 110.93C42.4871 110.93 43.6828 111.361 44.8907 111.62C49.5516 112.62 54.1972 113.697 58.8458 114.755C60.1849 115.061 60.1941 115.106 59.4559 116.244C56.2388 121.169 53.0218 126.095 49.8048 131.023C49.6919 131.197 49.6583 131.48 49.2466 131.465Z" fill="#6AEDE3"/>
<path id="Vector_7" d="M80.6475 108.057C76.1361 109.069 71.6309 110.1 67.1164 111.107C65.0056 111.571 64.9995 111.534 64.9995 109.35C64.9995 104.634 64.9995 99.9215 65.1703 95.1204C65.3411 95.4589 65.5181 95.7914 65.6858 96.1331C67.1286 99.0644 68.5958 101.98 69.9959 104.933C70.4931 105.979 71.216 106.458 72.3599 106.586C75.1265 106.934 77.8779 107.383 80.6353 107.807L80.6475 108.057Z" fill="#FFEE57"/>
<path id="Vector_8" d="M61.3543 95.1638V110.769C61.3543 111.208 61.4153 111.574 60.6985 111.41C55.754 110.275 50.7942 109.186 45.8436 108.076C45.7947 108.076 45.7673 107.966 45.6636 107.801C47.4938 107.53 49.2629 107.258 51.0382 106.999C52.1973 106.831 53.3625 106.694 54.5247 106.517C55.4032 106.389 55.9095 105.822 56.2847 105.059C57.9115 101.757 59.5445 98.4581 61.1835 95.1638H61.3543Z" fill="#7C55FF"/>
<path id="Vector_9" d="M126.453 71.3293C124.483 70.2983 122.488 69.3161 120.554 68.218C120.048 67.8904 119.458 67.7161 118.855 67.7161C118.252 67.7161 117.662 67.8904 117.156 68.218C115.186 69.3344 113.151 70.3532 110.836 71.552C111.385 70.6369 111.751 69.9933 112.132 69.3802C114.152 66.2628 116.201 63.1637 118.202 60.0341C118.687 59.2745 118.959 59.1434 119.502 60.0036C121.854 63.7097 124.26 67.3853 126.646 71.0731L126.453 71.3293Z" fill="#6AEDE3"/>
<path id="Vector_10" d="M134.406 54.2925C132.576 56.1226 130.791 57.9742 128.943 59.783C128.165 60.5425 127.866 61.3081 128.122 62.4245C128.495 64.0412 128.681 65.6975 128.976 67.5277C128.217 66.9847 127.949 66.3076 127.57 65.7372C125.859 63.1383 124.197 60.5059 122.473 57.9132C122 57.2024 121.9 56.87 122.912 56.6717C126.735 55.9122 130.492 54.8415 134.351 54.2314L134.406 54.2925Z" fill="#7C55FF"/>
<path id="Vector_11" d="M103.349 54.2646C105.295 54.3409 107.125 55.012 109.007 55.4055C111.038 55.8325 113.061 56.3205 115.108 56.7567C115.589 56.8605 115.834 57.0099 115.516 57.501C113.381 60.7984 111.246 64.0958 108.958 67.6036C108.69 66.6092 109.077 65.9076 109.141 65.203C109.28 64.1936 109.469 63.1918 109.708 62.2015C109.793 61.7917 109.767 61.3668 109.634 60.9703C109.5 60.5737 109.264 60.2197 108.949 59.9443C107.061 58.0806 105.212 56.1711 103.352 54.2799L103.349 54.2646Z" fill="#7C55FF"/>
<path id="Vector_12" d="M61.3674 54.3181C61.5931 55.0715 61.8189 55.8219 62.0415 56.5753C59.3908 57.5087 57.4508 59.1497 56.7035 61.9713C56.6801 62.1206 56.6402 62.2669 56.5845 62.4075C56.3741 62.8254 56.9475 63.6825 55.9043 63.6276C54.7117 63.5788 54.3456 63.2219 54.309 62.1024C54.2297 59.7934 54.1931 57.4843 54.0436 55.1783C53.9796 54.1808 54.3212 53.9581 55.2424 54.0313C57.2769 54.1808 59.3207 54.2296 61.3674 54.3181Z" fill="#D3C6FF"/>
<path id="Vector_13" d="M120.895 43.0786C121.81 44.9393 122.747 46.7847 123.61 48.6668C124.095 49.7191 124.748 50.3719 125.977 50.4786C127.419 50.6253 128.847 50.8875 130.247 51.2626L123.076 52.8975C123.039 52.8975 123 52.8975 122.963 52.9158C120.672 53.3947 120.672 53.3947 120.672 50.9911V43.1427L120.895 43.0786Z" fill="#6AEDE3"/>
<path id="Vector_14" d="M117.029 43.1151C117.029 46.2874 117.029 49.4597 117.029 52.6351C117.029 53.2695 116.812 53.4129 116.205 53.2726C113.301 52.5863 110.391 51.9335 107.472 51.1374C108.997 50.8995 110.495 50.6249 112.017 50.4358C112.433 50.3973 112.83 50.2455 113.166 49.9971C113.501 49.7486 113.762 49.413 113.921 49.0266C114.872 47.0469 115.839 45.0612 116.8 43.0999L117.029 43.1151Z" fill="#FFEE57"/>
<path id="Vector_15" d="M60.1658 63.2683C60.2177 61.7584 61.7642 60.2546 63.2832 60.1265C63.8689 60.0777 63.9238 60.3095 63.8384 60.7701C63.6066 62.0421 62.0082 63.6222 60.7881 63.8387C60.2543 63.9333 60.0743 63.7442 60.1658 63.2683Z" fill="#F8FAFA"/>
<path id="Vector_16" d="M62.417 67.1438C63.465 66.7402 64.419 66.1259 65.2202 65.3389C66.0213 64.5519 66.6526 63.609 67.0748 62.5684C67.5781 63.9806 67.3798 65.1947 66.4647 66.1677C65.4124 67.2963 64.1404 67.6227 62.417 67.1438Z" fill="#F8FAFA"/>
<path id="Vector_17" d="M77.1057 131.634C77.1576 131.719 77.2125 131.801 77.2582 131.89C77.2582 131.89 77.2094 131.932 77.182 131.957C77.1484 131.856 77.1179 131.753 77.0874 131.652L77.1057 131.634Z" fill="#A6D9A7"/>
<path id="Vector_18" d="M134.354 54.2377L134.507 54.1519L134.409 54.2928L134.354 54.2377Z" fill="#A5D8A7"/>
<path id="Vector_19" d="M103.337 54.2781L103.242 54.1677C103.275 54.2014 103.312 54.2321 103.349 54.2627L103.337 54.2781Z" fill="#78BC99"/>
<path id="Vector_20" d="M51.541 135.529L51.4307 135.623C51.4307 135.601 51.4307 135.568 51.4501 135.558C51.4758 135.541 51.5044 135.529 51.5345 135.523L51.541 135.529Z" fill="#78BC99"/>
<path id="Vector_21" d="M74.8156 135.523L74.9194 135.623C74.8967 135.623 74.8675 135.623 74.8545 135.623C74.8344 135.599 74.819 135.572 74.8091 135.542L74.8156 135.523Z" fill="#78BC99"/>
<path id="Vector_22" d="M70.4883 74.9923C72.8127 72.7026 75.138 70.4118 77.4644 68.12C78.837 66.7657 79.6575 66.7565 81.018 68.12C81.7714 68.8673 82.5431 69.5964 83.263 70.3894C83.9187 71.0963 84.3744 71.965 84.5831 72.9063C84.7919 73.8476 84.7463 74.8275 84.4509 75.7453C84.1555 76.6631 83.6211 77.4857 82.9025 78.1286C82.1839 78.7714 81.3071 79.2113 80.3622 79.4031C79.9473 79.4946 79.5081 79.5007 79.4471 80.0619C79.2488 81.8677 78.1354 83.0756 76.7841 84.1249C73.804 85.3267 71.3211 84.6313 69.2652 82.1941C68.8046 81.645 68.2403 81.1814 67.74 80.6689C66.8249 79.702 66.8249 78.8388 67.74 77.8779C68.6551 76.9171 69.5733 75.9471 70.4883 74.9923ZM72.5717 78.2531C72.2148 78.5886 71.5437 78.7625 71.7359 79.4122C71.9647 80.1778 73.4746 81.0045 74.3897 80.9648C75.3597 80.8977 75.7989 80.2449 75.8904 79.4031C76.0185 78.2073 75.0882 77.5149 74.2829 76.9628C73.6363 76.5266 73.3922 77.5271 72.9255 77.82C72.7846 77.944 72.6651 78.0903 72.5717 78.2531ZM81.0332 74.0345C81.018 73.3208 79.685 71.5943 79.203 71.6431C79.0383 71.6584 76.8147 73.879 76.8025 74.0345C76.7628 74.5378 78.6326 75.9532 79.3159 75.9227C79.7939 75.8935 80.2413 75.6782 80.5624 75.323C80.8834 74.9677 81.0525 74.5008 81.0332 74.0223V74.0345Z" fill="#7C55FF"/>
<path id="Vector_23" d="M100.176 107.247L108.052 99.4904C108.324 99.222 108.583 98.9444 108.861 98.6851C109.544 98.0446 110.325 97.8524 111.151 98.3496C112.027 98.8773 112.216 99.6978 111.908 100.631C111.224 102.721 110.505 104.804 109.827 106.897C109.708 107.272 109.416 107.632 109.654 108.269L113.143 104.746C113.448 104.423 113.778 104.087 114.119 103.788C114.462 103.451 114.923 103.262 115.403 103.262C115.884 103.262 116.345 103.451 116.688 103.788C117.407 104.526 117.444 105.53 116.666 106.344C115.33 107.748 113.921 109.09 112.567 110.471C112.301 110.737 112.066 111.033 111.819 111.316C110.117 112.982 108.403 114.635 106.719 116.319C105.963 117.078 105.167 117.594 104.12 116.929C103.074 116.264 103.178 115.321 103.51 114.312C104.029 112.735 104.517 111.146 105.017 109.559C105.425 108.708 105.718 107.806 105.89 106.878C105.554 107.183 105.383 107.324 105.234 107.488C104.746 108.001 104.264 108.516 103.779 109.032C102.992 109.791 102.208 110.557 101.415 111.304C100.472 112.195 99.368 112.25 98.6085 111.457C97.8489 110.664 97.9435 109.654 98.7976 108.736L100.176 107.247Z" fill="#7C55FF"/>
<path id="Vector_24" d="M79.1787 86.94C81.9464 84.1968 84.7231 81.4546 87.5091 78.7134C89.263 76.9777 89.8761 76.9686 91.6209 78.7134C92.292 79.3844 92.9874 80.0311 93.6158 80.7387C94.2544 81.4334 94.7 82.2832 94.9081 83.2036C95.1162 84.124 95.0796 85.0828 94.8019 85.9846C94.5242 86.8864 94.0152 87.6998 93.3254 88.3437C92.6357 88.9876 91.7893 89.4397 90.8705 89.6548C90.1598 89.8347 89.7785 90.0727 89.6717 90.8444C89.4216 92.6319 87.9514 93.6324 86.899 94.8952C86.4567 95.3009 86.0358 95.7371 85.563 96.1153C84.7852 96.7254 83.9555 96.7467 83.1868 96.1153C83.0076 95.9732 82.8587 95.7965 82.7491 95.5958C82.6394 95.3951 82.5712 95.1744 82.5484 94.9468C82.5257 94.7192 82.5489 94.4894 82.6166 94.2709C82.6843 94.0525 82.7953 93.8498 82.9428 93.6751C83.3271 93.1657 83.7969 92.7203 84.227 92.2445C86.6977 90.2374 86.8258 89.2125 84.8828 87.4677C84.4557 87.0834 84.2209 87.1383 83.8762 87.5135C83.2112 88.2364 82.5127 88.9288 81.8294 89.6487C81.3902 90.0635 80.9662 90.4966 80.5117 90.8932C79.6546 91.6436 78.7273 91.6466 77.9647 90.9267C77.2021 90.2069 77.1747 89.2521 77.8732 88.3828C78.288 87.8673 78.7547 87.4006 79.1787 86.94ZM91.3799 84.3991C91.3525 83.2583 90.5289 82.5689 89.7297 82.0778C89.1715 81.7362 88.8512 82.6879 88.4059 83.0204C88.0612 83.3182 87.7352 83.6371 87.4298 83.9751C87.1949 84.2069 87.0058 84.4266 87.3383 84.7285C87.7867 85.1342 88.1801 85.6436 88.6865 85.9487C88.9589 86.1017 89.2665 86.1813 89.579 86.1794C89.8915 86.1775 90.1981 86.0943 90.4687 85.9379C90.7392 85.7815 90.9644 85.5574 91.122 85.2876C91.2797 85.0178 91.3643 84.7116 91.3677 84.3991H91.3799Z" fill="#7C55FF"/>
<path id="Vector_25" d="M116.579 111.58C117.414 110.763 118.25 109.945 119.095 109.14C120.129 108.148 121.008 108.152 122.054 109.14C122.52 109.579 122.969 110.024 123.442 110.47C123.747 110.799 124.052 111.135 124.357 111.461C126.544 113.727 126.62 116.952 124.451 119.255C122.755 121.052 121.009 122.798 119.211 124.492C116.96 126.606 113.72 126.539 111.503 124.41C110.707 123.647 109.932 122.866 109.163 122.076C108.102 120.981 108.108 120.139 109.197 119.026C111.649 116.539 114.11 114.057 116.579 111.58ZM122.322 115.466C122.411 114.432 121.639 113.914 121.069 113.27C120.703 112.858 120.416 112.907 120.044 113.27C117.805 115.533 115.548 117.775 113.299 120.032C113.126 120.206 112.888 120.353 113.016 120.697C113.152 121.075 113.381 121.412 113.682 121.677C113.983 121.943 114.347 122.128 114.738 122.215C115.13 122.302 115.538 122.288 115.923 122.175C116.308 122.063 116.658 121.854 116.941 121.57C118.509 120.029 120.05 118.462 121.608 116.915C122.026 116.515 122.374 116.076 122.322 115.466Z" fill="#7C55FF"/>
<path id="Vector_26" d="M89.2621 97.4705C91.6322 95.4451 93.6942 93.1025 95.9422 90.955C96.7944 90.1008 97.8996 89.5446 99.0934 89.3693C100.287 89.1939 101.506 89.4088 102.567 89.982C105.773 91.7359 106.359 95.9057 103.739 98.6357C101.909 100.527 100.033 102.354 98.1842 104.215C97.8792 104.52 97.626 104.825 97.3484 105.13C96.8817 105.56 96.4333 106.02 95.9361 106.414C95.0637 107.106 94.1059 107.048 93.4105 106.31C92.715 105.572 92.6967 104.633 93.4257 103.782C93.7674 103.385 94.1243 103.001 94.472 102.613C97.5375 100.173 97.5741 99.9534 95.2559 97.8152C95.2265 97.7919 95.1999 97.7653 95.1766 97.7359C94.8716 97.3149 94.591 97.3973 94.2615 97.7359C93.5447 98.5198 92.8004 99.2763 92.0653 100.042C91.7023 100.365 91.3363 100.689 90.9794 101.015C90.0643 101.857 89.0303 101.89 88.2829 101.1C87.5966 100.374 87.6485 99.3068 88.3988 98.471C88.6978 98.1721 89.1065 97.9341 89.2621 97.4705ZM101.732 94.7679C101.725 94.29 101.537 93.8324 101.206 93.488C100.875 93.1435 100.425 92.9381 99.9473 92.9133C99.2914 92.895 97.507 94.167 97.4552 94.6856C97.4308 94.9509 99.7246 97.196 99.9778 97.1563C100.454 97.0922 101.719 95.3688 101.732 94.7771V94.7679Z" fill="#7C55FF"/>
<path id="Vector_27" d="M92.0688 100.076C92.804 99.3103 93.5482 98.5508 94.2651 97.7699C94.5914 97.4191 94.8751 97.3367 95.1802 97.7699C95.2035 97.7993 95.2301 97.8259 95.2594 97.8492C97.5777 99.9844 97.5411 100.222 94.4755 102.647L92.0688 100.076Z" fill="#F8FAFA"/>
<path id="Vector_28" d="M81.8452 89.6331C82.5285 88.9254 83.227 88.233 83.892 87.4979C84.2367 87.1227 84.4715 87.0678 84.8986 87.4522C86.8416 89.1969 86.7287 90.2218 84.2427 92.2289C83.4009 91.4114 82.4187 90.719 81.8452 89.6331Z" fill="#F8FAFA"/>
<path id="Vector_29" d="M103.765 109.037C104.25 108.522 104.732 108.006 105.22 107.494C105.37 107.335 105.54 107.189 105.876 106.884C105.704 107.812 105.411 108.714 105.004 109.565L103.765 109.037Z" fill="#F8FAFA"/>
<path id="Vector_30" d="M81.0324 74.0204C81.0483 74.4978 80.877 74.9625 80.555 75.3152C80.233 75.668 79.7858 75.8809 79.309 75.9085C78.6379 75.939 76.7559 74.5237 76.7955 74.0204C76.7955 73.8648 79.0314 71.6442 79.1961 71.629C79.6842 71.5741 81.0171 73.3066 81.0324 74.0204Z" fill="#F8FAFA"/>
<path id="Vector_31" d="M72.5723 78.2524C72.6659 78.0906 72.7855 77.9454 72.9261 77.8223C73.3928 77.5172 73.6368 76.5289 74.2835 76.9651C75.0888 77.5142 76.0191 78.2066 75.891 79.4054C75.7995 80.2473 75.3602 80.9 74.3902 80.9671C73.9419 79.9453 73.1671 79.1675 72.5723 78.2524Z" fill="#F8FAFA"/>
<path id="Vector_32" d="M72.5715 78.2529C73.1663 79.168 73.9411 79.958 74.4016 80.9646C73.4866 81.0043 71.9614 80.1777 71.7479 79.412C71.5435 78.7501 72.2146 78.5763 72.5715 78.2529Z" fill="#FDFDFD"/>
<path id="Vector_33" d="M91.3674 84.3988C91.3652 84.7131 91.2807 85.0213 91.1225 85.2928C90.9642 85.5643 90.7376 85.7896 90.4652 85.9463C90.1928 86.103 89.8841 86.1857 89.5699 86.186C89.2556 86.1864 88.9467 86.1045 88.674 85.9484C88.1676 85.6434 87.7741 85.137 87.3257 84.7283C86.9932 84.4232 87.1824 84.2067 87.4172 83.9749C87.7227 83.6368 88.0486 83.318 88.3933 83.0201C88.8387 82.6785 89.159 81.7359 89.7172 82.0776C90.5163 82.5717 91.3399 83.2611 91.3674 84.3988Z" fill="#F8FAFA"/>
<path id="Vector_34" d="M122.322 115.468C122.377 116.078 122.017 116.514 121.608 116.929C120.049 118.476 118.509 120.044 116.941 121.584C116.658 121.869 116.308 122.077 115.923 122.19C115.537 122.302 115.13 122.316 114.738 122.229C114.346 122.142 113.983 121.957 113.682 121.692C113.38 121.426 113.151 121.089 113.015 120.712C112.887 120.367 113.125 120.22 113.299 120.047C115.547 117.789 117.804 115.547 120.043 113.284C120.415 112.909 120.702 112.86 121.068 113.284C121.639 113.919 122.41 114.437 122.322 115.468Z" fill="#FDFDFD"/>
<path id="Vector_35" d="M101.728 94.7774C101.728 95.3691 100.45 97.0926 99.9745 97.1658C99.7213 97.2054 97.4275 94.9604 97.4519 94.695C97.5007 94.1765 99.282 92.9045 99.9439 92.9228C100.421 92.9476 100.871 93.153 101.203 93.4974C101.534 93.8418 101.722 94.2995 101.728 94.7774Z" fill="#F8FAFA"/>
</g>
</g>
</svg>
