<svg width="32" height="32" viewBox="0 0 32 32" fill="none" xmlns="http://www.w3.org/2000/svg">
<g id="icons8_handshake_1 1">
<path id="Vector" d="M19.3125 6.96876C18.7578 6.97266 18.207 7.00001 17.625 7.15626C17.043 7.31251 16.4609 7.56251 15.8438 7.96876C15.0781 7.51954 14.3359 7.14844 13.625 7.06251C12.7422 6.95313 11.9219 7.01173 10.9688 7.03126C9.83984 7.05469 9.10156 7.63282 7.90625 8.09376C6.71094 8.55469 5.17188 9.00001 3 9.00001H2V18.625L2.5625 18.9063L4.40625 19.8125L10.9688 27.125L11 27.1563C11.75 27.8984 12.7617 28.082 13.6562 28.0313C14.5508 27.9805 15.3906 27.7188 16.0625 27.3125C17.5391 26.4219 21.5625 23.625 21.5625 23.625L21.6562 23.5625L21.7188 23.5C22.1953 23.0274 22.4336 22.4492 22.5938 21.8438L26.4375 19.9063L29.3125 18.9375L30 18.7188V9.00001H29C26.832 9.00001 25.2891 8.53126 24.0938 8.06251C22.8984 7.59376 22.1719 7.02344 21.0312 7.00001C20.4219 6.98829 19.8672 6.96485 19.3125 6.96876ZM19.3438 8.96876C19.793 8.96485 20.3125 8.98829 20.9688 9.00001C21.0742 9.00391 22.0352 9.41407 23.375 9.93751C24.5078 10.3828 26.082 10.7774 28 10.9063V17.2813L25.6875 18.0625H25.625L25.5625 18.0938L22.5312 19.625C22.3633 19.168 22.1328 18.7461 21.7812 18.375L21.7188 18.2813L17.4688 13.0625L16.8438 12.2813L16.0625 12.9063L13.375 15.0938C12.4727 15.7188 11.7422 15.5391 11 15.1875C10.7852 15.0859 10.7969 15.0547 10.625 14.9375L15.1875 11.1563L15.25 11.0938C16.6055 9.75001 17.4375 9.28516 18.1562 9.09376C18.5156 8.9961 18.8945 8.97266 19.3438 8.96876ZM12.375 9.00001C12.7578 8.99219 13.0781 8.9961 13.375 9.03126C13.6367 9.06251 13.9336 9.28516 14.1875 9.37501C14.0859 9.46876 14.0117 9.52344 13.9062 9.62501C13.8828 9.64844 13.8672 9.66407 13.8438 9.68751L8.375 14.2188L7.53125 14.9063L8.28125 15.6875C8.28125 15.6875 9.00391 16.4688 10.125 17C11.2461 17.5313 12.9766 17.832 14.5312 16.75L14.5938 16.6875L16.5312 15.0938L20.2188 19.625L20.25 19.6875L20.2812 19.7188C20.9414 20.3711 20.9258 21.3984 20.2812 22.0625C20.2734 22.0703 20.2891 22.0859 20.2812 22.0938C20.2734 22.0977 20.1406 22.1758 20.125 22.1875L18.8125 20.4063L17.1875 21.5938L18.4688 23.3125C17.9492 23.6641 17.7148 23.8477 17.1562 24.2188L15.8125 22.4063L14.1875 23.5938L15.4688 25.3125C15.3555 25.3828 15.1211 25.5391 15.0312 25.5938C14.7148 25.7852 14.1055 26 13.5625 26.0313C13.0508 26.0586 12.6602 25.9414 12.4688 25.7813L12.4375 25.75L5.75 18.3438L5.625 18.1875L4 17.375V10.9063C5.91016 10.7813 7.49609 10.4024 8.625 9.96876C9.96094 9.45704 10.9141 9.03516 11.0312 9.03126C11.543 9.01954 11.9922 9.00782 12.375 9.00001Z" fill="#8700F4"/>
</g>
</svg>
