<svg width="176" height="176" viewBox="0 0 176 176" fill="none" xmlns="http://www.w3.org/2000/svg">
<g id="Group 87">
<rect id="Rectangle 11" width="176" height="176" rx="21" fill="#EFEDF5"/>
<g id="Group 84">
<path id="Vector" d="M63.1404 148C63.0965 147.687 62.8021 147.712 62.608 147.627C59.2443 146.209 57.6878 143.299 58.5678 139.798C58.8309 138.758 58.5897 138.514 57.5719 138.373C49.5636 137.239 44.0139 128.927 46.0152 121.166C46.485 119.349 47.5561 117.862 48.5489 116.327C50.0867 113.953 50.1149 111.432 49.3287 108.811C49.1878 108.839 49.0939 108.829 49.0437 108.87C46.153 111.376 43.2623 110.947 41.1921 107.711C39.5529 105.138 37.3686 102.956 34.7936 101.319C31.073 98.9327 31.0698 95.0554 34.778 92.6783C37.3967 91.0264 39.6068 88.8024 41.2422 86.1734C41.8686 85.1492 42.6453 84.2942 43.7884 83.862C43.9654 83.7912 44.1231 83.6793 44.2483 83.5355C44.3736 83.3918 44.4628 83.2203 44.5088 83.0352C45.2055 81.2414 46.4254 79.6984 48.0102 78.6067C48.2546 78.4581 48.4519 78.2433 48.5793 77.9873C48.7068 77.7312 48.7592 77.4444 48.7306 77.1598C48.7306 72.9067 48.6084 68.6536 49.4853 64.4443C50.3198 60.3142 51.8185 56.3468 53.9232 52.6966C54.2959 52.0514 54.3492 51.6286 53.8794 50.9678C52.1099 48.4623 51.3519 45.6843 52.019 42.662C53.0212 38.0895 57.3808 35.584 62.2259 36.7741C63.1654 37.0058 63.4066 36.9087 63.6415 35.9347C64.5466 32.1765 66.5729 29.2795 70.5035 28.2491C74.0049 27.3283 77.5502 29.007 79.5421 32.5147C80.0839 33.4543 80.5568 33.6328 81.6154 33.4543C91.9757 31.8382 101.531 33.9742 110.213 39.8559C111.074 40.4384 111.34 40.2724 111.838 39.4988C113.902 36.298 117.892 36.2667 119.94 39.455C121.744 42.3052 124.15 44.7255 126.99 46.5456C130.229 48.6283 130.178 52.6308 126.94 54.7323C126.022 55.3274 124.823 55.7909 124.378 56.6992C123.905 57.6638 124.889 58.7036 125.227 59.7058C126.924 64.7356 127.4 69.9189 127.216 75.1742C127.153 76.9562 127.466 78.2497 128.982 79.5588C132.668 82.744 133.229 88.0838 130.658 92.2398C130.474 92.4735 130.368 92.7585 130.353 93.0553C130.339 93.3521 130.417 93.646 130.576 93.8966C131.009 94.6894 131.272 95.5634 131.349 96.4632C131.426 97.3629 131.315 98.269 131.024 99.1237C130.019 102.008 129.377 105.04 127.379 107.523C126.361 108.776 126.029 110.361 126.214 112.199C127.407 110.446 128.894 109.509 130.911 109.694C131.636 109.749 132.337 109.979 132.954 110.365C133.57 110.751 134.084 111.28 134.45 111.908C136.27 114.835 138.734 117.309 141.654 119.14C144.735 121.125 144.754 125.131 141.682 127.117C138.782 128.968 136.317 131.425 134.457 134.32C132.577 137.229 128.948 137.386 126.73 134.743C126.605 134.596 126.477 134.455 126.326 134.279C123.94 136.597 121.165 138.072 117.87 138.467C116.931 138.579 117.259 139.168 117.388 139.647C117.691 140.658 117.745 141.728 117.544 142.764C117.343 143.801 116.894 144.773 116.235 145.598C115.246 146.885 113.83 147.477 112.367 147.991L63.1404 148ZM85.4112 122.538C83.1218 122.253 83.1218 122.253 83.2878 124.329C83.2878 126.437 83.197 128.545 83.2659 130.646C83.3158 131.829 83.8144 132.949 84.6603 133.777C85.5062 134.606 86.6359 135.081 87.8197 135.106C90.2688 135.178 92.5394 133.268 92.6647 130.812C92.7962 128.203 92.7117 125.582 92.7367 122.967C92.7367 122.481 92.624 122.293 92.0696 122.359C89.8594 122.61 87.6317 122.669 85.4112 122.538ZM132.963 130.189C134.901 127.89 137.034 125.829 139.631 124.238C140.68 123.596 140.705 122.657 139.677 122.027C137.1 120.439 134.948 118.388 132.997 116.102C132.512 115.353 132.058 114.589 131.531 113.862C130.864 112.923 129.984 112.895 129.377 113.862C127.31 117.187 124.501 119.988 121.171 122.046C120.254 122.616 120.232 123.571 121.124 124.132C124.485 126.216 127.318 129.047 129.405 132.406C129.972 133.311 130.877 133.286 131.5 132.406C132.02 131.705 132.477 130.937 132.963 130.189ZM118.265 43.3354C117.867 42.709 117.482 42.0826 117.065 41.475C116.289 40.3319 115.459 40.3162 114.713 41.5032C112.724 44.6949 110.032 47.3901 106.843 49.3831C105.615 50.1566 105.624 51.0242 106.843 51.8134C108.162 52.6474 109.406 53.5969 110.557 54.6509C112.155 56.1488 113.554 57.8456 114.719 59.6995C115.468 60.874 116.285 60.8677 117.072 59.7308C117.488 59.1232 117.867 58.4781 118.262 57.8517C120.185 55.4371 122.496 53.3576 125.099 51.6975C126.135 51.0712 126.135 50.1316 125.099 49.4864C122.494 47.8313 120.184 45.7523 118.265 43.3354ZM47.9351 89.8189C47.4966 89.133 47.0832 88.4315 46.6134 87.7675C45.8993 86.7559 45.0475 86.7465 44.3992 87.802C42.3507 91.0876 39.5756 93.8595 36.2876 95.9042C35.301 96.5305 35.2697 97.4388 36.2375 98.0464C39.5605 100.108 42.364 102.907 44.4305 106.227C45.0756 107.254 45.9369 107.201 46.651 106.177C47.1583 105.444 47.6313 104.686 48.1198 103.941C50.0038 101.651 52.2372 99.6739 54.7375 98.0808C55.7303 97.4732 55.7554 96.5399 54.7814 95.9386C52.186 94.2789 49.8744 92.2126 47.9351 89.8189ZM84.9665 138.138C81.1675 136.318 79.4763 133.299 79.683 129.105C79.7895 126.913 79.7081 124.739 79.683 122.553C79.683 122.225 79.8427 121.802 79.445 121.598C78.4647 121.094 77.6723 121.77 76.8111 122.055C76.1847 122.265 76.1628 122.713 76.1847 123.249C76.1847 125.159 76.1189 127.073 76.2066 128.98C76.335 131.799 75.4142 134.016 73.1781 135.823C72.0633 136.759 71.2745 138.024 70.9255 139.437C70.5766 140.85 70.6854 142.337 71.2363 143.684C71.4368 144.182 71.6278 144.514 72.2949 144.505C76.191 144.452 80.0902 144.458 83.9894 144.445C90.5663 144.445 97.112 144.461 103.67 144.505C104.347 144.505 104.522 144.154 104.716 143.662C105.844 140.825 105.029 137.649 102.48 135.56C101.583 134.865 100.866 133.963 100.39 132.933C99.9142 131.902 99.6933 130.772 99.7459 129.638C99.7803 127.802 99.7459 125.964 99.7459 124.129C99.7459 122.124 99.7459 122.124 97.7634 121.504C96.6829 121.166 96.2413 121.479 96.235 122.597C96.235 125.253 96.235 127.921 96.21 130.565C96.1965 132.42 95.5111 134.207 94.2808 135.595C91.7752 138.52 88.6089 139.209 84.9665 138.138ZM86.5325 57.2974C87.898 56.2701 88.6747 56.3766 89.6643 57.717C90.2437 58.5031 90.7981 59.308 91.4213 60.0534C99.5924 69.8625 109.17 77.0251 122.74 76.7276C123.498 76.7088 123.755 76.6117 123.727 75.8162C123.642 73.6239 123.727 71.4316 123.576 69.2643C123.365 65.9504 122.631 62.6907 121.403 59.6056L119.956 61.7415C117.833 64.8734 113.899 64.8922 111.832 61.6914C110.02 58.8574 107.611 56.4535 104.773 54.6478C101.581 52.6089 101.625 48.6095 104.798 46.5237C105.968 45.7545 107.092 44.9179 108.164 44.0181C108.857 43.4356 108.866 43.1412 108.067 42.6088C102.053 38.5363 94.9419 36.3898 87.6787 36.4546C84.6533 36.4546 81.7281 37.081 78.7528 37.5195C78.3975 37.4108 78.076 37.2126 77.8193 36.9438C77.5626 36.6751 77.3794 36.3448 77.2871 35.9848C77.1378 35.4998 76.9405 35.0309 76.6983 34.5849C75.7274 32.8686 74.4027 31.5689 72.3137 31.5595C70.1621 31.5595 68.8028 32.8592 67.8257 34.6319C67.0772 36.0146 66.7414 37.5832 66.8579 39.1512C66.908 40.05 66.8579 40.8925 65.981 41.4061C65.1573 41.8916 64.4151 41.5721 63.6885 41.1117C62.7864 40.5631 61.7811 40.206 60.7351 40.0626C57.6032 39.5709 55.1603 41.76 55.3201 44.9201C55.4203 46.9214 56.2878 48.5844 57.6063 50.0502C58.6273 51.1808 58.6962 51.7038 57.8819 52.9534C53.2812 60.0127 51.875 67.8205 52.2477 76.0824C52.2696 76.5679 52.3792 76.7339 52.9148 76.7401C56.7607 76.784 60.5503 76.4645 64.2178 75.1992C65.2732 74.8328 66.1345 75.0802 66.7233 76.073L66.8423 77.2287L66.8203 77.2945C66.631 77.6324 66.3734 77.9272 66.0639 78.1602C65.7544 78.3931 65.3998 78.5591 65.0226 78.6474C62.5346 79.4463 59.9594 79.9426 57.3526 80.1257C56.6574 80.1695 56.388 80.3982 56.2596 81.1342C55.6635 84.7148 55.6276 88.3663 56.1531 91.958C56.1923 92.2047 56.2857 92.4396 56.4265 92.6459C56.5673 92.8522 56.752 93.0248 56.9674 93.1512C58.7683 94.4635 59.4729 96.5337 58.6806 98.513C58.3674 99.3023 58.4958 99.8879 58.8309 100.586C62.157 107.523 67.2557 112.707 74.2085 116.001C78.4948 118.092 83.2215 119.119 87.9888 118.996C88.374 119.014 88.7624 119.061 89.1476 119.046C95.9411 118.813 102.484 116.424 107.829 112.224C108.769 111.488 109.652 111.21 110.673 111.983C111.447 113.383 111.331 113.959 110.047 114.968C108.579 116.133 107.015 117.17 105.371 118.069C104.394 118.601 103.395 119.102 102.352 119.634C102.448 119.738 102.552 119.834 102.665 119.919C108.615 123.346 112.981 128.169 115.678 134.486C115.916 135.043 116.251 135.112 116.758 135.075C119.346 134.85 121.778 133.745 123.648 131.943C124.209 131.41 124.081 131.107 123.614 130.634C122.344 129.365 120.944 128.235 119.436 127.261C116.126 125.093 116.123 121.16 119.417 119.002C120.53 118.281 121.592 117.484 122.596 116.618C122.833 116.454 123.005 116.214 123.085 115.937C123.165 115.66 123.147 115.365 123.035 115.1C122.474 113.195 122.518 111.257 122.853 109.309C123.141 107.636 124.021 106.221 124.914 104.661C123.257 104.736 121.782 104.702 120.441 103.953C119.781 103.58 119.467 103.665 119.11 104.357C118.23 106.01 117.192 107.574 116.01 109.027C115.07 110.198 114.444 110.305 113.097 109.556C112.258 108.476 112.674 107.586 113.41 106.621C119.148 99.0423 121.244 90.558 119.699 81.1686C119.571 80.37 119.251 80.157 118.525 80.11C115.331 79.8963 112.19 79.1873 109.214 78.0085C100.823 74.7702 94.24 69.1641 88.6809 62.2426C88.1235 61.5473 87.9105 61.4565 87.3029 62.2426C83.2534 67.3664 78.5148 71.7354 72.8774 75.0834C71.4649 75.9227 70.8667 75.8037 69.7862 74.504C69.5263 73.2011 70.2717 72.5215 71.2833 71.9045C77.3542 68.1842 82.5546 63.2027 86.5325 57.2974ZM73.5414 119.75C73.3034 119.321 72.8837 119.274 72.5486 119.108C70.7238 118.223 68.9746 117.191 67.3183 116.02C62.4448 112.584 58.5215 107.969 55.9151 102.606C55.6019 101.933 55.3608 101.833 54.7751 102.312C53.8669 103.054 53.015 103.85 52.1725 104.664C51.6463 105.171 51.5179 105.604 51.9501 106.255C52.5176 107.146 52.9 108.142 53.0745 109.183C53.7009 112.497 53.3 115.616 51.3613 118.466C50.4875 119.753 49.5636 121.016 49.2943 122.616C48.2608 128.77 52.7895 134.542 59.0595 135.081C59.7548 135.14 60.068 134.915 60.3499 134.276C62.9055 128.351 67.2971 123.404 72.8774 120.164C73.0935 120.042 73.3128 119.898 73.5414 119.75ZM103.279 124.689C103.279 126.374 103.307 128.04 103.279 129.7C103.244 130.303 103.361 130.905 103.617 131.452C103.874 131.999 104.262 132.473 104.748 132.832C106.761 134.422 108.121 136.695 108.568 139.221C108.9 140.956 108.697 142.691 108.236 144.473H110.576C113.363 144.473 114.588 142.948 113.93 140.242C112.548 134.297 109.164 129.007 104.347 125.259C104.049 125.043 103.805 124.705 103.279 124.689ZM67.6597 144.483C67.6702 144.368 67.6702 144.253 67.6597 144.138C66.526 139.459 67.8226 135.597 71.5495 132.55C72.0938 132.154 72.4596 131.558 72.5674 130.894C72.8242 128.82 72.6269 126.747 72.7114 124.417C66.8391 128.833 63.1811 134.307 61.8688 141.254C61.5556 142.911 62.918 144.386 64.6593 144.467C65.6302 144.52 66.6042 144.483 67.6597 144.483ZM123.194 80.3073C123.338 81.7418 123.508 83.1605 123.617 84.5824C123.73 86.0585 123.73 87.541 123.617 89.0171C123.58 89.5182 123.946 89.4368 124.244 89.4775C125.133 89.5997 126.048 89.7061 126.818 90.1697C127.588 90.6332 127.801 90.2605 128.071 89.6404C129.868 85.6472 127.604 81.2626 123.194 80.3073ZM123.47 101.156C125.835 101.203 127.679 99.5027 127.801 97.301C127.844 96.2403 127.481 95.2032 126.786 94.4012C126.09 93.5993 125.115 93.0928 124.059 92.9852C123.457 92.9195 123.154 93.0573 123.032 93.7244C122.705 95.5194 122.217 97.2814 121.575 98.9891C121.058 100.361 121.24 100.693 122.696 101.056C122.952 101.107 123.21 101.141 123.47 101.156ZM52.8459 80.2666C51.8801 80.4369 50.9627 80.8142 50.1566 81.3727C49.3505 81.9311 48.6749 82.6575 48.1762 83.5019C47.9664 83.8464 47.7973 84.1533 48.2952 84.4602C49.0845 84.9425 49.501 85.7631 50.0021 86.5054C50.6425 87.5644 51.4337 88.5245 52.351 89.3554C52.1462 86.3169 52.3124 83.2649 52.8459 80.2666Z" fill="#040303"/>
<path id="Vector_2" d="M69.7851 74.4919C70.8657 75.7917 71.4638 75.9107 72.8763 75.0713C78.5137 71.7171 83.2523 67.3481 87.3018 62.2306C87.9094 61.4601 88.1224 61.551 88.6798 62.2306C94.2389 69.1521 100.822 74.7581 109.213 77.9965C112.189 79.1753 115.33 79.8842 118.524 80.098C119.25 80.145 119.57 80.358 119.698 81.1566C121.224 90.5523 119.128 99.0365 113.409 106.609C112.68 107.574 112.263 108.464 113.096 109.541C112.526 110.56 111.686 111.401 110.669 111.974C109.648 111.201 108.771 111.48 107.825 112.216C102.482 116.419 95.9404 118.813 89.1465 119.049C88.7613 119.065 88.3729 119.018 87.9877 118.999C87.9125 118.739 87.6745 118.655 87.4678 118.57C82.272 116.456 77.737 113.428 74.057 109.137C71.9082 106.619 70.1166 103.816 68.7328 100.809C68.6044 100.534 68.5261 100.296 68.8675 100.126C68.9449 100.132 69.0215 100.146 69.0961 100.167C78.1003 103.64 86.3215 95.5163 84.1104 87.151C83.9695 86.6092 84.1605 86.4777 84.6115 86.3524C86.8024 85.7308 89.1229 85.7308 91.3138 86.3524C91.8242 86.4933 91.9996 86.6405 91.843 87.2293C91.4529 88.7457 91.4026 90.3296 91.6958 91.8677C92.1814 94.5415 93.6307 96.9444 95.7692 98.6212C97.9078 100.298 100.587 101.132 103.299 100.966C109.003 100.596 113.535 96.0268 113.751 90.4364C113.86 88.1205 113.245 85.828 111.991 83.8779C110.737 81.9278 108.907 80.4172 106.754 79.5562C104.604 78.6854 102.233 78.5157 99.9811 79.0713C97.7287 79.6269 95.7093 80.8796 94.2107 82.6505C93.7347 83.1986 93.3839 83.3552 92.6448 83.1172C89.5834 82.1022 86.2752 82.1088 83.2178 83.1359C82.5914 83.3395 82.2783 83.28 81.8461 82.7664C80.3656 80.925 78.3117 79.6318 76.0113 79.0927C72.3909 78.222 69.1494 79.0927 66.1929 81.2568C66.1929 79.907 66.9539 78.673 66.8192 77.2981L66.8412 77.2355C67.336 76.9066 67.3517 76.3899 67.3673 75.8762C68.1941 75.4409 69.187 75.3125 69.7851 74.4919ZM87.9814 105.075C89.9138 104.984 91.6175 104.339 92.9674 102.883C93.7723 102.018 93.8036 101.019 93.0739 100.289C92.3441 99.5596 91.4359 99.5878 90.5684 100.324C88.6485 101.943 87.3081 101.946 85.4289 100.346C84.5176 99.5658 83.5498 99.569 82.8389 100.346C82.1718 101.079 82.2125 102.021 82.9892 102.851C84.3234 104.317 86.0209 104.981 87.9814 105.075Z" fill="#FDECE3"/>
<path id="Vector_3" d="M69.783 74.4918C69.1848 75.3124 68.192 75.4314 67.3746 75.8699L66.7294 76.0734C66.1344 75.0806 65.2731 74.8207 64.2239 75.1996C60.5565 76.4524 56.7669 76.7844 52.9209 76.7405C52.3854 76.7405 52.2757 76.5683 52.2538 76.0828C51.8811 67.8209 53.2873 59.9975 57.8724 52.9382C58.6867 51.6854 58.6178 51.1655 57.5968 50.0349C56.2783 48.5692 55.4045 46.903 55.3105 44.9049C55.1508 41.7448 57.5937 39.5556 60.7256 40.0473C61.7683 40.192 62.7703 40.5491 63.6696 41.0965C64.3993 41.5569 65.1384 41.8763 65.9621 41.3909C66.8328 40.8773 66.9017 40.0348 66.839 39.1359C66.7225 37.5679 67.0583 35.9994 67.8068 34.6166C68.7839 32.844 70.1432 31.5348 72.2948 31.5442C74.3994 31.5442 75.7242 32.8534 76.6794 34.5696C76.9216 35.0156 77.1189 35.4846 77.2682 35.9696C77.3605 36.3296 77.5437 36.6598 77.8004 36.9286C78.0571 37.1973 78.3786 37.3956 78.7339 37.5042C77.9635 38.7382 77.9948 40.1757 77.9228 41.5162C77.6096 47.2225 79.614 52.0299 83.9924 55.7537C84.7346 56.3801 85.4205 57.2132 86.5229 57.2978C82.5401 63.1999 77.3354 68.1771 71.2613 71.8924C70.2684 72.5093 69.5231 73.189 69.783 74.4918Z" fill="url(#paint0_linear_617_478)"/>
<path id="Vector_4" d="M86.5307 57.2975C85.4282 57.213 84.7424 56.3862 84.0001 55.7535C79.6155 52.0297 77.6298 47.2223 77.9305 41.516C78.0025 40.1755 77.9712 38.738 78.7417 37.504C81.7076 37.0718 84.6421 36.4392 87.6675 36.4392C94.9307 36.3744 102.042 38.5208 108.056 42.5933C108.855 43.1257 108.845 43.4201 108.153 44.0027C107.081 44.9024 105.956 45.739 104.786 46.5082C101.614 48.594 101.57 52.5934 104.761 54.6323C107.599 56.438 110.009 58.8419 111.821 61.6759C113.888 64.8767 117.821 64.8704 119.945 61.726L121.392 59.5901C122.62 62.6752 123.354 65.9349 123.565 69.2488C123.709 71.4411 123.631 73.6335 123.716 75.8007C123.744 76.5962 123.487 76.6933 122.729 76.7121C109.162 77.0096 99.5844 69.847 91.4102 60.0379C90.7838 59.2925 90.2326 58.4877 89.6532 57.7016C88.6823 56.3768 87.9056 56.2703 86.5307 57.2975Z" fill="url(#paint1_linear_617_478)"/>
<path id="Vector_5" d="M73.5357 119.751C73.3071 119.898 73.0878 120.042 72.8655 120.174C67.2852 123.414 62.8935 128.361 60.3379 134.286C60.056 134.912 59.7429 135.15 59.0476 135.091C52.7838 134.552 48.2488 128.78 49.2823 122.626C49.5517 121.025 50.4756 119.763 51.3494 118.476C53.288 115.626 53.6858 112.507 53.0625 109.193C52.888 108.152 52.5057 107.156 51.9382 106.265C51.506 105.61 51.625 105.181 52.1606 104.674C53.003 103.86 53.8549 103.064 54.7632 102.322C55.3488 101.843 55.5743 101.943 55.9032 102.616C58.5109 107.976 62.434 112.588 67.3064 116.021C68.9626 117.191 70.7119 118.224 72.5366 119.109C72.878 119.275 73.2977 119.322 73.5357 119.751Z" fill="url(#paint2_linear_617_478)"/>
<path id="Vector_6" d="M68.862 100.135C68.5206 100.304 68.5989 100.542 68.7273 100.818C70.1111 103.825 71.9027 106.627 74.0515 109.146C77.7315 113.436 82.2665 116.465 87.4623 118.579C87.6753 118.663 87.907 118.748 87.9822 119.008C83.215 119.131 78.4882 118.104 74.2019 116.014C67.2491 112.719 62.1504 107.536 58.8243 100.599C58.4892 99.9002 58.3577 99.3145 58.674 98.5253C59.4663 96.546 58.7617 94.4758 56.9608 93.1635C56.7451 93.0351 56.5606 92.8603 56.4209 92.6517C56.2811 92.4432 56.1895 92.2061 56.1528 91.9577C55.6301 88.3613 55.6702 84.7055 56.2718 81.1214C56.4002 80.3854 56.6696 80.1568 57.3648 80.1129C59.9716 79.9299 62.5468 79.4335 65.0348 78.6347C65.4124 78.5463 65.7673 78.38 66.0769 78.1465C66.3865 77.9129 66.6439 77.6173 66.8325 77.2786C66.9672 78.6535 66.2062 79.8874 66.2062 81.2373C65.94 81.516 65.6706 81.7885 65.4075 82.0704C62.3258 85.4277 61.4206 89.2737 62.8832 93.6114C63.9011 96.6556 66.0746 98.6913 68.862 100.135Z" fill="#FCDBCD"/>
<path id="Vector_7" d="M110.674 111.984C111.691 111.411 112.531 110.569 113.101 109.55C114.438 110.302 115.087 110.195 116.014 109.024C117.196 107.571 118.234 106.007 119.114 104.354C119.471 103.662 119.785 103.578 120.445 103.95C121.773 104.699 123.264 104.733 124.918 104.658C124.025 106.224 123.145 107.633 122.857 109.306C122.522 111.254 122.478 113.192 123.039 115.097C123.151 115.362 123.169 115.657 123.089 115.934C123.009 116.211 122.837 116.451 122.6 116.616C121.595 117.482 120.532 118.278 119.418 118.999C116.123 121.157 116.127 125.09 119.437 127.258C120.945 128.232 122.345 129.362 123.615 130.631C124.082 131.104 124.21 131.408 123.649 131.94C121.779 133.742 119.347 134.847 116.759 135.072C116.252 135.122 115.917 135.041 115.679 134.483C112.982 128.166 108.604 123.343 102.666 119.917C102.553 119.831 102.448 119.736 102.353 119.632C103.395 119.09 104.395 118.589 105.372 118.066C107.016 117.168 108.58 116.13 110.048 114.965C111.332 113.96 111.448 113.384 110.674 111.984Z" fill="url(#paint3_linear_617_478)"/>
<path id="Vector_8" d="M84.9654 138.137C88.5953 139.208 91.7616 138.519 94.2828 135.594C95.5234 134.21 96.219 132.423 96.2402 130.564C96.2653 127.908 96.2559 125.24 96.2653 122.597C96.2653 121.479 96.7132 121.165 97.7937 121.504C99.7761 122.13 99.7761 122.13 99.7761 124.128C99.7761 125.963 99.8043 127.802 99.7761 129.637C99.7228 130.771 99.9427 131.9 100.417 132.931C100.892 133.962 101.608 134.863 102.504 135.56C105.047 137.649 105.868 140.824 104.74 143.662C104.546 144.154 104.371 144.507 103.694 144.504C97.136 144.46 90.5747 144.457 84.0133 144.445C84.0697 143.818 83.6469 143.349 83.4841 142.794C83.2241 141.96 83.2268 141.065 83.4917 140.233C83.7567 139.4 84.2711 138.668 84.9654 138.137Z" fill="#6AEDE3"/>
<path id="Vector_9" d="M84.9681 138.138C84.2688 138.665 83.7488 139.395 83.4787 140.228C83.2087 141.062 83.2016 141.958 83.4586 142.795C83.6214 143.349 84.0442 143.822 83.9879 144.446C80.0887 144.446 76.1895 144.446 72.2934 144.505C71.6263 144.505 71.4352 144.192 71.2348 143.685C70.6839 142.338 70.575 140.85 70.924 139.437C71.273 138.025 72.0618 136.759 73.1766 135.824C75.4127 134.016 76.3335 131.793 76.2051 128.98C76.1174 127.073 76.2051 125.159 76.1832 123.249C76.1832 122.713 76.1832 122.266 76.8096 122.056C77.6708 121.771 78.4632 121.094 79.4435 121.598C79.8412 121.802 79.6784 122.225 79.6815 122.554C79.6815 124.746 79.7755 126.938 79.6815 129.106C79.4905 133.299 81.1817 136.318 84.9681 138.138Z" fill="#39CABF"/>
<path id="Vector_10" d="M48.118 103.94C47.6295 104.685 47.1565 105.443 46.6492 106.176C45.9351 107.2 45.0832 107.254 44.4287 106.226C42.3622 102.906 39.5587 100.107 36.2356 98.0458C35.2679 97.4383 35.2961 96.5237 36.2858 95.9036C39.5738 93.8589 42.3488 91.0871 44.3973 87.8014C45.0582 86.746 45.8975 86.7554 46.6116 87.767C47.0814 88.4309 47.4948 89.1325 47.9332 89.8184C45.6094 93.0755 44.9016 96.6428 46.0541 100.486C46.4425 101.773 46.7901 103.176 48.118 103.94Z" fill="#FCEB6D"/>
<path id="Vector_11" d="M118.256 57.8617C117.862 58.4881 117.483 59.1145 117.066 59.7409C116.286 60.8777 115.462 60.884 114.714 59.7095C113.55 57.8582 112.153 56.1636 110.558 54.6672C109.406 53.6132 108.163 52.6637 106.844 51.8297C105.625 51.0405 105.616 50.1729 106.844 49.3994C110.037 47.4027 112.731 44.702 114.72 41.5039C115.466 40.3169 116.286 40.3325 117.072 41.4757C117.489 42.0864 117.874 42.7284 118.272 43.336C118.081 43.6743 117.902 44.0188 117.702 44.3508C116.32 46.5421 115.697 49.1272 115.929 51.7076C116.136 53.9688 117.126 55.9419 118.256 57.8617Z" fill="#FFF06A"/>
<path id="Vector_12" d="M132.963 130.189C132.478 130.938 132.024 131.705 131.501 132.428C130.874 133.296 129.972 133.321 129.405 132.428C127.319 129.069 124.485 126.238 121.125 124.154C120.229 123.593 120.254 122.638 121.172 122.068C124.502 120.009 127.31 117.207 129.377 113.881C129.985 112.914 130.865 112.942 131.532 113.881C132.049 114.608 132.512 115.372 132.998 116.121C132.537 116.327 132.327 116.747 132.105 117.164C131.338 118.61 130.696 120.092 130.514 121.752C130.166 124.906 130.937 127.724 132.963 130.189Z" fill="#FCEB6D"/>
<path id="Vector_13" d="M85.4111 122.537C87.6315 122.669 89.8592 122.609 92.0694 122.358C92.6238 122.293 92.7397 122.481 92.7365 122.966C92.7115 125.581 92.796 128.203 92.6645 130.811C92.5392 133.267 90.2686 135.177 87.8195 135.105C86.6357 135.08 85.506 134.605 84.6601 133.776C83.8142 132.948 83.3156 131.828 83.2657 130.645C83.1968 128.544 83.2657 126.436 83.2876 124.328C83.986 123.718 84.8849 123.348 85.4111 122.537Z" fill="#FCDBCD"/>
<path id="Vector_14" d="M103.276 124.689C103.802 124.704 104.046 125.043 104.335 125.271C109.152 129.019 112.536 134.309 113.918 140.254C114.576 142.96 113.351 144.482 110.564 144.485H108.224C108.685 142.703 108.888 140.968 108.556 139.233C108.109 136.707 106.749 134.433 104.735 132.844C104.25 132.485 103.862 132.011 103.605 131.464C103.349 130.917 103.232 130.315 103.267 129.712C103.304 128.04 103.276 126.374 103.276 124.689Z" fill="#FAD9CB"/>
<path id="Vector_15" d="M67.6608 144.483C66.6054 144.483 65.6313 144.521 64.6573 144.483C62.916 144.399 61.5536 142.917 61.8668 141.27C63.1791 134.323 66.8371 128.849 72.7094 124.433C72.6248 126.763 72.8221 128.836 72.5653 130.91C72.4576 131.574 72.0918 132.17 71.5475 132.566C67.8163 135.611 66.5197 139.473 67.6577 144.154C67.6683 144.264 67.6694 144.374 67.6608 144.483Z" fill="#FAC9BA"/>
<path id="Vector_16" d="M132.963 130.188C130.937 127.724 130.167 124.905 130.514 121.732C130.696 120.072 131.338 118.6 132.105 117.144C132.328 116.727 132.537 116.308 132.998 116.101C134.949 118.387 137.101 120.439 139.678 122.027C140.705 122.653 140.68 123.593 139.631 124.238C137.047 125.829 134.902 127.89 132.963 130.188Z" fill="#FCF18D"/>
<path id="Vector_17" d="M48.1208 103.94C46.7929 103.176 46.4515 101.773 46.0632 100.495C44.9044 96.6525 45.6122 93.0853 47.9423 89.8281C49.8816 92.2218 52.1932 94.2881 54.7886 95.9478C55.7626 96.5492 55.7282 97.4825 54.7448 98.09C52.2429 99.6797 50.0075 101.654 48.1208 103.94Z" fill="#FCF18D"/>
<path id="Vector_18" d="M118.261 57.8617C117.13 55.945 116.141 53.9687 115.928 51.7075C115.696 49.1282 116.319 46.5443 117.7 44.3538C117.901 44.0219 118.079 43.6774 118.27 43.3391C120.189 45.7594 122.499 47.8416 125.104 49.4995C126.135 50.1259 126.135 51.0655 125.104 51.7107C122.499 53.3692 120.187 55.4477 118.261 57.8617Z" fill="#FFF06A"/>
<path id="Vector_19" d="M123.193 80.3071C127.603 81.2467 129.867 85.6313 128.079 89.6402C127.804 90.2665 127.584 90.6298 126.826 90.1694C126.068 89.7091 125.141 89.5994 124.252 89.4773C123.964 89.4366 123.597 89.518 123.626 89.0169C123.738 87.5408 123.738 86.0583 123.626 84.5822C123.488 83.1603 123.337 81.7415 123.193 80.3071Z" fill="#FAD9CB"/>
<path id="Vector_20" d="M123.465 101.157C123.205 101.141 122.947 101.108 122.692 101.057C121.235 100.694 121.054 100.362 121.57 98.9898C122.213 97.2821 122.7 95.5201 123.027 93.7251C123.149 93.058 123.453 92.9202 124.054 92.986C125.11 93.0936 126.085 93.6 126.781 94.402C127.476 95.204 127.84 96.241 127.797 97.3017C127.674 99.5034 125.83 101.204 123.465 101.157Z" fill="#EFF3F9"/>
<path id="Vector_21" d="M52.8468 80.2664C52.3126 83.2677 52.1464 86.3229 52.352 89.3645C51.4347 88.5336 50.6434 87.5735 50.0031 86.5145C49.502 85.7722 49.0854 84.9485 48.2962 84.4694C47.7982 84.1562 47.983 83.843 48.1772 83.511C48.6749 82.6649 49.35 81.9367 50.1562 81.3766C50.9623 80.8164 51.8803 80.4377 52.8468 80.2664Z" fill="#FAC9BA"/>
<path id="Vector_22" d="M85.4081 122.537C84.8819 123.348 83.983 123.718 83.2846 124.329C83.1186 122.252 83.1186 122.252 85.4081 122.537Z" fill="#FAC9BA"/>
<path id="Vector_23" d="M66.7354 76.0734L67.3805 75.8699C67.3805 76.3835 67.3492 76.9003 66.8544 77.2291C66.8074 76.8439 66.7761 76.4587 66.7354 76.0734Z" fill="#FCDBCD"/>
<path id="Vector_24" d="M68.8622 100.135C66.0749 98.691 63.9013 96.6678 62.8772 93.6236C61.4146 89.2828 62.3197 85.44 65.4015 82.0826C65.6646 81.8007 65.9339 81.5283 66.2001 81.2495C69.1566 79.0854 72.3981 78.2147 76.0186 79.0854C78.319 79.6245 80.3729 80.9177 81.8533 82.7591C82.273 83.2727 82.6018 83.3322 83.2251 83.1286C86.2824 82.1015 89.5906 82.0949 92.6521 83.1099C93.3787 83.3479 93.7294 83.1913 94.218 82.6432C95.7165 80.8723 97.736 79.6197 99.9883 79.064C102.241 78.5084 104.611 78.6781 106.761 79.5489C108.914 80.4099 110.745 81.9205 111.999 83.8706C113.253 85.8207 113.868 88.1132 113.758 90.4291C113.542 96.0195 109.01 100.589 103.307 100.958C100.594 101.125 97.915 100.291 95.7765 98.6139C93.6379 96.9371 92.1886 94.5342 91.7031 91.8604C91.4098 90.3223 91.4601 88.7384 91.8503 87.222C92.0069 86.6332 91.8315 86.486 91.321 86.3451C89.1302 85.7235 86.8096 85.7235 84.6188 86.3451C84.1678 86.4704 83.9924 86.6019 84.1177 87.1437C86.3256 95.509 78.1076 103.633 69.1034 100.16C69.0241 100.143 68.9433 100.134 68.8622 100.135ZM76.0311 96.8933C78.8905 96.0007 80.9639 93.016 80.9451 89.8184C80.9231 86.6865 78.8436 83.7331 76.0311 82.8593C73.2312 81.7537 70.6787 82.2517 68.3862 84.1121C65.5205 86.4391 64.9067 90.7611 66.9299 93.9681C68.8591 97.028 72.8617 98.312 76.0311 96.8933ZM105.327 96.8933C108.189 96.0038 110.26 93.0223 110.241 89.8152C110.222 86.6833 108.142 83.7237 105.324 82.853C102.524 81.7412 99.9713 82.2548 97.6819 84.1058C94.8162 86.4328 94.2086 90.7485 96.2287 93.9587C98.1423 97.0123 102.164 98.3058 105.324 96.8964L105.327 96.8933Z" fill="#030303"/>
<path id="Vector_25" d="M87.979 105.074C86.0184 104.98 84.3209 104.316 82.968 102.882C82.1944 102.052 82.1505 101.109 82.8176 100.376C83.5286 99.5935 84.4963 99.5904 85.4077 100.376C87.2868 101.977 88.6273 101.974 90.5471 100.355C91.4209 99.6186 92.3417 99.606 93.0527 100.32C93.7636 101.034 93.7511 102.049 92.9462 102.913C91.6151 104.338 89.9114 104.984 87.979 105.074Z" fill="#040303"/>
<path id="Vector_26" d="M105.323 96.8971C102.16 98.3065 98.1383 97.013 96.2403 93.9688C94.2203 90.7586 94.8278 86.4523 97.6935 84.1159C99.9829 82.2587 102.535 81.745 105.335 82.8631C105.271 83.3259 105.05 83.7526 104.709 84.072C102.31 86.5775 102.203 91.7326 103.785 94.4073C104.261 95.2497 105.301 95.7665 105.323 96.8971Z" fill="#CABFFE"/>
<path id="Vector_27" d="M76.0313 96.8942C72.8619 98.3129 68.8593 97.0289 66.9301 93.9721C64.9069 90.7651 65.5207 86.4556 68.3864 84.1161C70.6789 82.2369 73.2314 81.7546 76.0313 82.8633C75.9342 83.4271 75.5271 83.8029 75.2139 84.2476C73.0654 87.248 72.8243 90.4174 74.2148 93.8124C74.6784 94.943 75.7401 95.6853 76.0313 96.8942Z" fill="#CABFFE"/>
<path id="Vector_28" d="M76.0327 96.8946C75.7414 95.6857 74.6797 94.9434 74.2162 93.8097C72.8256 90.4147 73.0668 87.2327 75.2153 84.2449C75.5285 83.8096 75.9356 83.4243 76.0327 82.8606C78.8514 83.7344 80.9247 86.6815 80.9466 89.8197C80.9654 93.0173 78.8921 96.002 76.0327 96.8946Z" fill="#E6E1FF"/>
<path id="Vector_29" d="M105.324 96.8968C105.299 95.7662 104.26 95.2494 103.758 94.3913C102.174 91.7135 102.283 86.5616 104.682 84.0561C105.023 83.7366 105.244 83.3099 105.309 82.8472C108.127 83.7178 110.207 86.6618 110.226 89.8094C110.26 93.0258 108.19 96.0074 105.324 96.8968Z" fill="#E6E1FF"/>
</g>
</g>
<defs>
<linearGradient id="paint0_linear_617_478" x1="51.5817" y1="34.1915" x2="92.186" y2="70.3799" gradientUnits="userSpaceOnUse">
<stop stop-color="#FEFEFE"/>
<stop offset="0.51" stop-color="#B3A3FD"/>
<stop offset="1" stop-color="#6D4FFC"/>
</linearGradient>
<linearGradient id="paint1_linear_617_478" x1="77.0799" y1="38.7971" x2="112.04" y2="85.4608" gradientUnits="userSpaceOnUse">
<stop stop-color="#FEFEFE"/>
<stop offset="0.51" stop-color="#B3A3FD"/>
<stop offset="1" stop-color="#6D4FFC"/>
</linearGradient>
<linearGradient id="paint2_linear_617_478" x1="48.698" y1="103.961" x2="78.2996" y2="129.59" gradientUnits="userSpaceOnUse">
<stop stop-color="#FEFEFE"/>
<stop offset="0.51" stop-color="#B3A3FD"/>
<stop offset="1" stop-color="#6D4FFC"/>
</linearGradient>
<linearGradient id="paint3_linear_617_478" x1="101.948" y1="105.568" x2="129.901" y2="129.178" gradientUnits="userSpaceOnUse">
<stop stop-color="#FEFEFE"/>
<stop offset="0.51" stop-color="#B3A3FD"/>
<stop offset="1" stop-color="#6D4FFC"/>
</linearGradient>
</defs>
</svg>
