<svg width="24" height="24" viewBox="0 0 24 24" fill="none" xmlns="http://www.w3.org/2000/svg">
<g id="icons8_Dollar_Coin_1 1">
<path id="Vector" d="M12 3.5C7.31446 3.5 3.5 7.31446 3.5 12C3.5 16.6855 7.31446 20.5 12 20.5C16.6855 20.5 20.5 16.6855 20.5 12C20.5 7.31446 16.6855 3.5 12 3.5ZM12 5C15.8749 5 19 8.12512 19 12C19 15.8749 15.8749 19 12 19C8.12512 19 5 15.8749 5 12C5 8.12512 8.12512 5 12 5ZM12 6.5C11.62 6.5 11.313 6.80848 11.3135 7.18848V7.89258C10.068 7.98258 9.07812 9.01423 9.07812 10.2822C9.07812 11.6087 10.1579 12.6885 11.4844 12.6885H12.6875C13.256 12.6885 13.7188 13.1503 13.7188 13.7188C13.7188 14.2872 13.256 14.75 12.6875 14.75H11.3389C10.7004 14.75 10.3006 14.4852 10.0791 14.2637C9.8106 13.9952 9.37592 13.9952 9.10742 14.2637C8.83892 14.5322 8.83892 14.9678 9.10742 15.2363C9.67492 15.8038 10.4575 16.1156 11.3125 16.1221V16.8125C11.3125 17.192 11.62 17.5 12 17.5C12.38 17.5 12.6875 17.192 12.6875 16.8125V16.125C14.014 16.125 15.0928 15.0443 15.0928 13.7178C15.0928 12.3913 14.013 11.3115 12.6865 11.3115H11.4844C10.9159 11.3115 10.4531 10.8498 10.4531 10.2812C10.4531 9.71275 10.9159 9.25 11.4844 9.25H12.541C13.1856 9.25 13.4821 9.6205 13.4854 9.62207V9.62305C13.6905 9.94151 14.1153 10.0315 14.4346 9.82715C14.7536 9.62115 14.8456 9.19595 14.6396 8.87695C14.4256 8.54595 13.7485 7.93877 12.6875 7.88477V7.1875C12.6875 6.808 12.38 6.5 12 6.5Z" fill="#101828"/>
</g>
</svg>
