<svg width="24" height="24" viewBox="0 0 24 24" fill="none" xmlns="http://www.w3.org/2000/svg">
<g id="icons8_checked_user_female 1">
<path id="Vector" d="M8.75 2C5.99759 2 3.75 4.24759 3.75 7C3.75 9.75241 5.99759 12 8.75 12C10.7019 12 12.5842 10.828 14.0459 9.72363C15.5076 8.61925 16.5459 7.51367 16.5459 7.51367C16.6766 7.37458 16.7494 7.19088 16.7494 7C16.7494 6.80912 16.6766 6.62542 16.5459 6.48633C16.5459 6.48633 15.5076 5.38075 14.0459 4.27637C12.5842 3.17199 10.7019 2 8.75 2ZM8.75 3.5C10.0481 3.5 11.7908 4.45301 13.1416 5.47363C14.1524 6.23732 14.537 6.66407 14.8721 7C14.537 7.33593 14.1524 7.76268 13.1416 8.52637C11.7908 9.54699 10.0481 10.5 8.75 10.5C6.80841 10.5 5.25 8.94159 5.25 7C5.25 5.05841 6.80841 3.5 8.75 3.5ZM17.5 12C14.4625 12 12 14.4625 12 17.5C12 20.5375 14.4625 23 17.5 23C20.5375 23 23 20.5375 23 17.5C23 14.4625 20.5375 12 17.5 12ZM3.30664 14C2.28064 14 1.44629 14.8923 1.44629 15.9893V16.75C1.44629 18.3905 2.29398 19.8162 3.83398 20.7637C5.12948 21.5612 6.85629 22 8.69629 22C9.97229 22 11.1895 21.7842 12.25 21.3887C11.946 20.9837 11.6845 20.5457 11.4805 20.0752C10.612 20.3587 9.64329 20.5 8.69629 20.5C5.92679 20.5 2.94629 19.3265 2.94629 16.75V15.9893C2.94629 15.7238 3.11114 15.5 3.30664 15.5H11.2637C11.4367 14.966 11.6795 14.464 11.9775 14H3.30664ZM20.5 15C20.6279 15 20.7558 15.0487 20.8535 15.1465C21.049 15.342 21.049 15.658 20.8535 15.8535L16.8535 19.8535C16.756 19.951 16.628 20 16.5 20C16.372 20 16.244 19.951 16.1465 19.8535L14.1465 17.8535C13.951 17.658 13.951 17.342 14.1465 17.1465C14.342 16.951 14.658 16.951 14.8535 17.1465L16.5 18.793L20.1465 15.1465C20.2442 15.0487 20.3721 15 20.5 15Z" fill="#101828"/>
</g>
</svg>
