<svg xmlns="http://www.w3.org/2000/svg" data-name="Layer 8" viewBox="0 0 24 24" id="ImageImportOuLc"><path d="M12,18H5c-.55,0-1-.45-1-1v-1.88l3.82-1.04,2.62,1.75c.17,.11,.36,.17,.55,.17,.18,0,.36-.05,.51-.14l4.46-2.68,1,.65c.42,.28,.96,.18,1.29-.18,.18,.21,.44,.35,.75,.35,.55,0,1-.45,1-1V5c0-1.65-1.35-3-3-3H5c-1.65,0-3,1.35-3,3v12c0,1.65,1.35,3,3,3h7c.55,0,1-.45,1-1s-.45-1-1-1ZM5,4h12c.55,0,1,.45,1,1v7.12l-1.45-.95c-.32-.21-.73-.22-1.06-.02l-4.46,2.67-2.47-1.65c-.24-.16-.54-.21-.82-.13l-3.74,1.02V5c0-.55,.45-1,1-1Zm1,3.5c0-.83,.67-1.5,1.5-1.5s1.5,.67,1.5,1.5-.67,1.5-1.5,1.5-1.5-.67-1.5-1.5Zm15.71,12.21l-2,2c-.19,.19-.45,.29-.71,.29-.13,0-.26-.02-.38-.08-.37-.15-.62-.52-.62-.92v-1h-2c-.55,0-1-.45-1-1s.45-1,1-1h2v-1c0-.4,.24-.77,.62-.92,.38-.16,.8-.07,1.09,.22l2,2c.09,.09,.17,.2,.22,.33,.1,.24,.1,.52,0,.76-.05,.12-.12,.23-.22,.33Z" fill="#7c55ff" class="color000000 svgShape"></path></svg>